<svg xmlns="http://www.w3.org/2000/svg" xmlns:xlink="http://www.w3.org/1999/xlink" width="500" zoomAndPan="magnify" viewBox="0 0 375 374.999991" height="500" preserveAspectRatio="xMidYMid meet" version="1.0"><defs><g/><clipPath id="4689680873"><rect x="0" width="375" y="0" height="356"/></clipPath></defs><g transform="matrix(1, 0, 0, 1, 0, 7)"><g clip-path="url(#4689680873)"><g fill="#8b6f7e" fill-opacity="1"><g transform="translate(0.0000045, 285.220714)"><g><path d="M 105.578125 -192 C 117.273438 -192 126.890625 -190.269531 134.421875 -186.8125 C 141.960938 -183.363281 148.660156 -179.332031 154.515625 -174.71875 C 158.054688 -172.0625 160.753906 -171.75 162.609375 -173.78125 C 164.472656 -175.820312 165.765625 -180.65625 166.484375 -188.28125 L 172.59375 -188.28125 C 172.238281 -181.363281 171.972656 -172.984375 171.796875 -163.140625 C 171.617188 -153.304688 171.53125 -140.234375 171.53125 -123.921875 L 165.40625 -123.921875 C 164.519531 -132.078125 163.367188 -139.035156 161.953125 -144.796875 C 160.535156 -150.566406 158.582031 -155.664062 156.09375 -160.09375 C 153.613281 -164.53125 150.070312 -168.519531 145.46875 -172.0625 C 141.03125 -176.488281 135.882812 -179.765625 130.03125 -181.890625 C 124.1875 -184.023438 118.070312 -185.09375 111.6875 -185.09375 C 102.113281 -185.09375 93.957031 -182.566406 87.21875 -177.515625 C 80.488281 -172.460938 75.039062 -165.59375 70.875 -156.90625 C 66.707031 -148.21875 63.644531 -138.421875 61.6875 -127.515625 C 59.738281 -116.609375 58.765625 -105.304688 58.765625 -93.609375 C 58.765625 -81.734375 59.785156 -70.34375 61.828125 -59.4375 C 63.867188 -48.53125 67.0625 -38.820312 71.40625 -30.3125 C 75.75 -21.800781 81.375 -15.0625 88.28125 -10.09375 C 95.195312 -5.132812 103.351562 -2.65625 112.75 -2.65625 C 118.601562 -2.65625 124.5 -3.765625 130.4375 -5.984375 C 136.375 -8.203125 141.472656 -11.4375 145.734375 -15.6875 C 152.648438 -21.007812 157.347656 -27.613281 159.828125 -35.5 C 162.304688 -43.394531 164.164062 -53.898438 165.40625 -67.015625 L 171.53125 -67.015625 C 171.53125 -50.171875 171.617188 -36.5625 171.796875 -26.1875 C 171.972656 -15.820312 172.238281 -7.09375 172.59375 0 L 166.484375 0 C 165.765625 -7.625 164.5625 -12.410156 162.875 -14.359375 C 161.195312 -16.304688 158.410156 -16.039062 154.515625 -13.5625 C 147.953125 -8.957031 140.988281 -4.925781 133.625 -1.46875 C 126.269531 1.988281 116.832031 3.71875 105.3125 3.71875 C 86.519531 3.71875 70.078125 -0.0859375 55.984375 -7.703125 C 41.890625 -15.328125 30.941406 -26.320312 23.140625 -40.6875 C 15.335938 -55.050781 11.4375 -72.335938 11.4375 -92.546875 C 11.4375 -112.398438 15.46875 -129.773438 23.53125 -144.671875 C 31.601562 -159.566406 42.6875 -171.175781 56.78125 -179.5 C 70.875 -187.832031 87.140625 -192 105.578125 -192 Z M 105.578125 -192 "/></g></g></g><g fill="#8b6f7e" fill-opacity="1"><g transform="translate(187.481368, 285.220714)"><g><path d="M 105.578125 -192 C 117.273438 -192 126.890625 -190.269531 134.421875 -186.8125 C 141.960938 -183.363281 148.660156 -179.332031 154.515625 -174.71875 C 158.054688 -172.0625 160.753906 -171.75 162.609375 -173.78125 C 164.472656 -175.820312 165.765625 -180.65625 166.484375 -188.28125 L 172.59375 -188.28125 C 172.238281 -181.363281 171.972656 -172.984375 171.796875 -163.140625 C 171.617188 -153.304688 171.53125 -140.234375 171.53125 -123.921875 L 165.40625 -123.921875 C 164.519531 -132.078125 163.367188 -139.035156 161.953125 -144.796875 C 160.535156 -150.566406 158.582031 -155.664062 156.09375 -160.09375 C 153.613281 -164.53125 150.070312 -168.519531 145.46875 -172.0625 C 141.03125 -176.488281 135.882812 -179.765625 130.03125 -181.890625 C 124.1875 -184.023438 118.070312 -185.09375 111.6875 -185.09375 C 102.113281 -185.09375 93.957031 -182.566406 87.21875 -177.515625 C 80.488281 -172.460938 75.039062 -165.59375 70.875 -156.90625 C 66.707031 -148.21875 63.644531 -138.421875 61.6875 -127.515625 C 59.738281 -116.609375 58.765625 -105.304688 58.765625 -93.609375 C 58.765625 -81.734375 59.785156 -70.34375 61.828125 -59.4375 C 63.867188 -48.53125 67.0625 -38.820312 71.40625 -30.3125 C 75.75 -21.800781 81.375 -15.0625 88.28125 -10.09375 C 95.195312 -5.132812 103.351562 -2.65625 112.75 -2.65625 C 118.601562 -2.65625 124.5 -3.765625 130.4375 -5.984375 C 136.375 -8.203125 141.472656 -11.4375 145.734375 -15.6875 C 152.648438 -21.007812 157.347656 -27.613281 159.828125 -35.5 C 162.304688 -43.394531 164.164062 -53.898438 165.40625 -67.015625 L 171.53125 -67.015625 C 171.53125 -50.171875 171.617188 -36.5625 171.796875 -26.1875 C 171.972656 -15.820312 172.238281 -7.09375 172.59375 0 L 166.484375 0 C 165.765625 -7.625 164.5625 -12.410156 162.875 -14.359375 C 161.195312 -16.304688 158.410156 -16.039062 154.515625 -13.5625 C 147.953125 -8.957031 140.988281 -4.925781 133.625 -1.46875 C 126.269531 1.988281 116.832031 3.71875 105.3125 3.71875 C 86.519531 3.71875 70.078125 -0.0859375 55.984375 -7.703125 C 41.890625 -15.328125 30.941406 -26.320312 23.140625 -40.6875 C 15.335938 -55.050781 11.4375 -72.335938 11.4375 -92.546875 C 11.4375 -112.398438 15.46875 -129.773438 23.53125 -144.671875 C 31.601562 -159.566406 42.6875 -171.175781 56.78125 -179.5 C 70.875 -187.832031 87.140625 -192 105.578125 -192 Z M 105.578125 -192 "/></g></g></g></g></g></svg>